<svg version="1.2" xmlns="http://www.w3.org/2000/svg" viewBox="0 0 2500 1358" width="184" height="100">
	<title>poo-logo</title>
	<style>
		.s0 { fill: #ffffff } 
		.s1 { fill: #fbb110 } 
		.s2 { fill: #e70020 } 
	</style>
	<g id="Layer 1">
		<path class="s0" d="m10 190c0-83.6 67.1-151.3 149.9-151.3h2199.8c82.8 0 150 67.7 150 151.3v957.2c0 83.5-67.2 151.2-150 151.2h-2199.8c-82.8 0-149.9-67.7-149.9-151.2z"/>
		<path class="s1" d="m1.7 184.7c0-76.8 61.8-139.1 137.9-139.1h2222.6c76.1 0 137.8 62.3 137.8 139.1v4.4h-2498.3zm2498.3 985.2v3.4c0 76.8-61.7 139.2-137.8 139.2h-2222.6c-76.1 0-137.9-62.4-137.9-139.2v-3.4z"/>
		<path id="Forma 1" fill-rule="evenodd" class="s2" d="m2500 254.7v848.3h-2500v-848.3z"/>
		<path id="Layer copy" class="s0" d="m1606.7 679.5c0 194.5 156.3 352.2 349.1 352.2 192.7 0 349-157.7 349-352.2 0-194.6-156.3-352.2-349-352.2-192.8 0-349.1 157.6-349.1 352.2zm140.1 0c0-116.5 93.6-210.9 209-210.9 115.3 0 208.8 94.4 208.8 210.9 0 116.4-93.5 210.8-208.8 210.8-115.4 0-209-94.4-209-210.8z"/>
		<path id="Layer copy 2" class="s0" d="m856.7 679.5c0 194.5 156.3 352.2 349.1 352.2 192.7 0 349-157.7 349-352.2 0-194.6-156.3-352.2-349-352.2-192.8 0-349.1 157.6-349.1 352.2zm140.1 0c0-116.5 93.6-210.9 209-210.9 115.3 0 208.8 94.4 208.8 210.9 0 116.4-93.5 210.8-208.8 210.8-115.4 0-209-94.4-209-210.8z"/>
		<path id="Layer copy 3" class="s0" d="m261 578.9c0 135.2 125.8 244.8 281.1 244.8 155.3 0 281.2-109.6 281.2-244.8 0-135.3-125.9-244.9-281.2-244.9-23.8 0-46.9 2.6-69 7.4-121.9 26.8-211.2-56.3-165.6 18.7 45.5 75-46.5 104.3-46.5 218.8zm112.8 0c0-81 75.4-146.6 168.3-146.6 93 0 168.3 65.6 168.3 146.6 0 80.9-75.3 146.6-168.3 146.6-92.9 0-168.3-65.7-168.3-146.6z"/>
		<path id="Forma 2" fill-rule="evenodd" class="s0" d="m303.5 322c38.9 0 70.5 31.6 70.5 70.5v572c0 38.9-31.6 70.5-70.5 70.5-38.9 0-70.5-31.6-70.5-70.5v-572c0-38.9 31.6-70.5 70.5-70.5z"/>
	</g>
</svg>